HIERARCHY
ROOT root
{
	OFFSET 0.000000 0.000000 0.000000
	CHANNELS 6 Xposition Yposition Zposition Zrotation Yrotation Xrotation
	JOINT lhip
	{
		OFFSET 0.058581 -0.082280 -0.017664
		CHANNELS 3 Zrotation Yrotation Xrotation
		JOINT lknee
		{
			OFFSET 0.043451 -0.386469 0.008037
			CHANNELS 3 Zrotation Yrotation Xrotation
			JOINT lankle
			{
				OFFSET -0.014790 -0.426874 -0.037428
				CHANNELS 3 Zrotation Yrotation Xrotation
				JOINT ltoe
				{
					OFFSET 0.041054 -0.060286 0.122042
					CHANNELS 3 Zrotation Yrotation Xrotation
					End Site
					{
						OFFSET 0.000000 0.000000 0.000000
					}
				}
			}
		}
	}
	JOINT rhip
	{
		OFFSET -0.060310 -0.090513 -0.013543
		CHANNELS 3 Zrotation Yrotation Xrotation
		JOINT rknee
		{
			OFFSET -0.043257 -0.383688 -0.004843
			CHANNELS 3 Zrotation Yrotation Xrotation
			JOINT rankle
			{
				OFFSET 0.019056 -0.420046 -0.034562
				CHANNELS 3 Zrotation Yrotation Xrotation
				JOINT rtoe
				{
					OFFSET -0.034840 -0.062106 0.130323
					CHANNELS 3 Zrotation Yrotation Xrotation
					End Site
					{
						OFFSET 0.000000 0.000000 0.000000
					}
				}
			}
		}
	}
	JOINT lowerback
	{
		OFFSET 0.004439 0.124404 -0.038385
		CHANNELS 3 Zrotation Yrotation Xrotation
		JOINT upperback
		{
			OFFSET 0.004488 0.137956 0.026820
			CHANNELS 3 Zrotation Yrotation Xrotation
			JOINT chest
			{
				OFFSET -0.002265 0.056032 0.002855
				CHANNELS 3 Zrotation Yrotation Xrotation
				JOINT lowerneck
				{
					OFFSET -0.013390 0.211636 -0.033468
					CHANNELS 3 Zrotation Yrotation Xrotation
					JOINT upperneck
					{
						OFFSET 0.010113 0.088937 0.050410
						CHANNELS 3 Zrotation Yrotation Xrotation
						End Site
						{
							OFFSET 0.000000 0.000000 0.000000
						}
					}
				}
				JOINT lclavicle
				{
					OFFSET 0.071702 0.114000 -0.018898
					CHANNELS 3 Zrotation Yrotation Xrotation
					JOINT lshoulder
					{
						OFFSET 0.122921 0.045205 -0.019046
						CHANNELS 3 Zrotation Yrotation Xrotation
						JOINT lelbow
						{
							OFFSET 0.255332 -0.015649 -0.022946
							CHANNELS 3 Zrotation Yrotation Xrotation
							JOINT lwrist
							{
								OFFSET 0.265709 0.012698 -0.007375
								CHANNELS 3 Zrotation Yrotation Xrotation
								End Site
								{
									OFFSET 0.000000 0.000000 0.000000
								}
							}
						}
					}
				}
				JOINT rclavicle
				{
					OFFSET -0.082954 0.112472 -0.023707
					CHANNELS 3 Zrotation Yrotation Xrotation
					JOINT rshoulder
					{
						OFFSET -0.113228 0.046853 -0.008472
						CHANNELS 3 Zrotation Yrotation Xrotation
						JOINT relbow
						{
							OFFSET -0.260127 -0.014369 -0.031269
							CHANNELS 3 Zrotation Yrotation Xrotation
							JOINT rwrist
							{
								OFFSET -0.269108 0.006794 -0.006027
								CHANNELS 3 Zrotation Yrotation Xrotation
								End Site
								{
									OFFSET 0.000000 0.000000 0.000000
								}
							}
						}
					}
				}
			}
		}
	}
}
MOTION
Frames: 7
Frame Time: 0.033333
-0.529774 -1.853961 0.981097 167.164570 1.598598 93.419543 7.836658 4.402546 -28.341237 -7.852500 13.095061 46.703850 -7.306905 -3.692763 3.194467 0.000000 -0.000000 0.000000 -6.896031 -5.787496 -16.992343 0.406141 -4.837943 49.596342 -2.713515 -1.603137 -11.637702 0.000000 -0.000000 0.000000 0.874209 3.179266 26.124248 -1.928954 0.861801 10.232282 1.802710 0.248018 -6.003963 -21.417237 29.154529 -9.395085 -21.530588 35.439412 -23.073310 -23.770955 -3.170255 2.803388 -39.855414 1.157075 -8.688433 58.577036 -56.312782 -43.857498 -3.320614 -9.132052 -24.721536 24.387434 7.691085 8.430819 44.468822 13.852093 -1.445257 -26.950352 39.804753 -33.001763 2.829626 8.755033 -21.349494 
-0.539931 -1.789987 0.997541 165.839506 1.610864 93.994712 8.302742 6.595008 -28.602713 -8.151545 8.677436 50.179120 -7.782002 -5.306974 7.733052 0.000000 -0.000000 0.000000 -7.639366 -8.458697 -16.251128 0.253062 -6.755020 45.295878 -2.202000 -0.821261 -7.997993 0.000000 -0.000000 0.000000 1.375068 3.163819 24.555883 -3.097439 1.619358 9.343999 1.843518 0.499939 -6.147845 -22.018163 29.398232 -8.173958 -22.426716 38.239461 -25.507927 -24.166814 -0.209719 4.620950 -41.511120 4.044677 -11.550262 53.627426 -54.013682 -42.273027 -8.853792 -13.453932 -36.055069 23.468274 5.674243 10.322709 46.610681 12.027533 -2.216065 -26.008191 41.475066 -32.924781 3.343374 9.514812 -26.501627 
-0.547996 -1.725840 1.003292 163.822867 1.564570 94.127300 12.570454 8.504442 -26.501378 -1.705465 15.219256 49.686421 -1.713392 5.511512 1.122428 0.000000 -0.000000 0.000000 -8.980539 -10.005741 -14.438917 0.768390 -6.251488 42.404792 -0.391193 -0.911245 -3.364048 0.000000 -0.000000 0.000000 0.341275 4.142650 22.470337 -3.463305 2.590392 9.450529 2.244190 0.736117 -5.878239 -21.316745 28.336887 -8.337561 -21.340194 39.503127 -24.778326 -23.840090 3.346491 5.856195 -44.368150 5.509592 -14.061129 48.446033 -53.805902 -46.034441 -9.198614 -12.742545 -42.729581 23.249460 2.988948 10.973603 47.354417 11.303580 -1.393519 -23.958683 42.573464 -33.214592 3.747700 9.385785 -24.930128 
-0.556240 -1.645475 0.993325 163.550008 1.007337 94.574063 16.853654 8.494655 -24.712414 -3.796571 13.588393 41.357221 -2.689432 3.780332 -4.220604 0.000000 -0.000000 0.000000 -11.725107 -10.733069 -10.929530 1.569377 -5.606127 41.199710 2.699850 0.417332 0.546693 0.000000 -0.000000 0.000000 -1.964311 5.679524 19.062259 -2.834417 2.783082 9.849965 2.563853 0.401564 -5.020825 -17.484160 26.545619 -7.252722 -17.733384 36.068636 -20.284587 -23.453394 8.309427 7.843804 -49.937063 6.952710 -15.011007 50.849009 -52.092495 -49.968100 -10.522584 -16.479209 -51.220033 24.153490 -0.656881 10.797658 47.801912 10.948740 -0.536787 -21.987618 43.592998 -29.364952 6.853207 9.662690 -23.698423 
-0.560806 -1.595961 0.978429 164.377017 0.654634 95.079691 19.755143 8.390743 -24.151380 -3.291806 16.518983 36.370423 -10.200984 5.545880 -2.688934 0.000000 -0.000000 0.000000 -13.633667 -10.896594 -7.641237 1.011391 -7.317846 40.680208 5.513253 2.171634 0.967113 0.000000 -0.000000 0.000000 -3.226051 6.551993 15.836749 -2.276397 2.722037 10.952483 2.135388 0.552346 -4.682944 -13.691633 24.845643 -6.122063 -13.442865 30.085986 -15.714546 -23.292540 12.179869 7.610693 -53.312125 7.089536 -14.778123 55.924800 -52.231508 -53.345051 -11.921679 -19.844802 -54.389733 25.240601 -3.493710 10.371913 47.970212 10.210184 -0.396541 -19.687489 44.411269 -25.015712 6.059655 10.536461 -26.079072 
-0.567363 -1.531156 0.947164 167.143527 -0.831085 96.381726 21.241061 7.197130 -26.484388 -5.032503 15.704976 31.053738 -7.410504 3.064767 -4.781319 0.000000 -0.000000 0.000000 -16.608791 -12.180810 -2.502278 0.455783 -8.996211 39.900484 5.339569 0.519855 -4.312947 0.000000 -0.000000 0.000000 -5.805277 8.493923 10.250847 -1.702575 2.701675 11.775471 1.905394 1.051566 -2.904694 -8.015748 17.156196 -4.252836 -5.751900 19.304863 -10.838942 -22.483177 17.016238 7.385382 -56.905426 4.986777 -13.520397 66.334184 -53.740282 -61.445671 -9.998930 -17.478376 -56.279325 25.431733 -7.302007 9.981244 49.983781 7.349399 -0.415618 -18.021387 45.778807 -22.982412 5.512483 10.411958 -29.195391 
-0.572378 -1.463846 0.906095 171.231008 -1.746744 95.861905 22.333757 6.883876 -28.918916 -5.721812 13.977113 30.561990 -8.820661 1.674777 -6.631020 0.000000 -0.000000 0.000000 -18.072314 -13.606590 6.360012 -3.429116 -11.795116 37.785696 6.555425 2.434144 -10.351329 0.000000 -0.000000 0.000000 -7.900934 11.808563 7.610196 -1.493304 1.809284 13.212843 2.657179 3.196917 -7.678562 8.537807 -11.546557 8.303489 22.960703 -2.304527 -18.745242 -20.502433 17.369700 11.348797 -59.621612 5.751160 -14.753226 82.425826 -57.237275 -73.655720 -10.885109 -17.924071 -56.572699 21.502353 -6.985851 13.670454 56.334207 -2.504919 -9.408781 -10.785577 48.390979 -11.866611 3.546406 9.801615 -35.094753 
